<svg width="32" height="32" viewBox="0 0 32 32" fill="none" xmlns="http://www.w3.org/2000/svg">
  <rect width="32" height="32" rx="6" fill="#2563EB"/>
  <path d="M8 12C8 9.79086 9.79086 8 12 8H20C22.2091 8 24 9.79086 24 12V20C24 22.2091 22.2091 24 20 24H12C9.79086 24 8 22.2091 8 20V12Z" fill="white"/>
  <path d="M12 10H20C21.1046 10 22 10.8954 22 12V20C22 21.1046 21.1046 22 20 22H12C10.8954 22 10 21.1046 10 20V12C10 10.8954 10.8954 10 12 10Z" fill="#2563EB"/>
  <path d="M14 14H18V16H14V14Z" fill="white"/>
  <path d="M14 18H18V20H14V18Z" fill="white"/>
  <circle cx="16" cy="12" r="1" fill="white"/>
</svg>
